<svg version="1.1" xmlns="http://www.w3.org/2000/svg" width="133.2" height="79.4" viewBox="0 0 133.2 79.4" role="img" aria-label="Arilux logo">
  <path fill-rule="evenodd" clip-rule="evenodd" fill="currentColor" d="M0,79.4h133.2V25.3L66.6,0L0,25.4V79.4z M13.4,53.1v16H7.1V33.8c0-0.9,0.6-1.9,1.4-2.3l4.8-1.7l6.5-2.3l4.1-1.4c0.9-0.3,1.8,0.8,1.8,1.7v9.8V69h-5.9V52.1L13.4,53.1z M19.8,46.2V34.5c0-0.6-0.5-0.9-1-0.8L14.4,35c-0.6,0.2-1,0.8-1,1.4v11L19.8,46.2z M30.3,69V23.8l9.4-3.3c0.4-0.1,0.8-0.3,1.2-0.4l2.9-1c2.8-1,5.2,0.7,5.2,3.7v15.1c0,2.5-1.6,5.2-3.8,6.6c4,1.8,3.8,8.1,3.8,11.9v12.6h-6.3V55c0-4.6-1.2-6.1-4.1-5.7l-2.2,0.3v19.3L30.3,69z M36.5,28.3v14.6l3.9-0.9c1-0.2,2.3-1.9,2.3-2.8v-11c0-1-0.8-1.6-1.7-1.3L36.5,28.3z M53.3,68.9V15.6l6.3-2.2v55.4L53.3,68.9z M73.7,13.4v55.5H87v-6.4h-7.3V15.6L73.7,13.4z M89,36.3v20v8.1c0,2.8,2.1,5.1,4.8,5.1h6.6c2.6,0,4.8-2.3,4.8-5.1V24.8L100,23v37.8c0,0.9-0.7,1.7-1.6,1.7h-0.6c-0.2,0-0.4,0-0.6,0c-0.2,0-0.4,0-0.5,0h-0.7c-0.9,0-1.6-0.8-1.6-1.7V21L89,19V36.3z M113.4,48L106.3,69l4.7,0l4.6-13l3.7,13l5.3,0l-6.2-20.8l5.9-16.4l-4.8-1.7l-3.5,10.2l-3.8-12.8l-5.1-1.9L113.4,48z"/>
</svg>
